<svg width="48" height="48" viewBox="0 0 48 48" fill="none" xmlns="http://www.w3.org/2000/svg">
<path d="M18.0015 6H28.6545L17.5965 40.7715C17.494 41.121 17.2826 41.4286 16.9931 41.6496C16.7036 41.8705 16.3511 41.9933 15.987 42H7.69499C7.23186 41.9859 6.79325 41.7886 6.47546 41.4514C6.15767 41.1142 5.98666 40.6647 5.99999 40.2015C6.00081 40.0056 6.03115 39.8109 6.08999 39.624L16.395 7.2255C16.4979 6.87706 16.709 6.57044 16.9979 6.3501C17.2867 6.12975 17.6383 6.00712 18.0015 6Z" fill="#01579B"/>
<path d="M33.48 30H16.59C16.3769 30.0059 16.1748 30.096 16.028 30.2507C15.8812 30.4053 15.8018 30.6119 15.807 30.825C15.8058 30.9384 15.8273 31.051 15.87 31.156C15.9128 31.2611 15.976 31.3566 16.056 31.437L26.91 41.511C27.2177 41.821 27.6358 41.9963 28.0725 41.9985H37.6365L33.48 30Z" fill="#1976D2"/>
<path d="M31.6065 7.224C31.5035 6.87608 31.2924 6.56997 31.0039 6.34993C30.7154 6.12989 30.3643 6.00734 30.0015 6H18.129C18.4921 6.00661 18.8437 6.12865 19.1328 6.34845C19.4219 6.56825 19.6336 6.87438 19.737 7.2225L30.039 39.621C30.1868 40.0651 30.1587 40.549 29.9606 40.9731C29.7625 41.3972 29.4095 41.7293 28.974 41.901C28.7997 41.9632 28.6161 41.9957 28.431 41.997H40.3035C40.7667 41.9833 41.2054 41.7863 41.5235 41.4494C41.8416 41.1125 42.0129 40.6632 42 40.2C41.9992 40.0041 41.9689 39.8094 41.91 39.6225L31.608 7.2255L31.6065 7.224Z" fill="#29B6F6"/>
</svg>
