<svg width="16" height="16" viewBox="0 0 16 16" fill="none" xmlns="http://www.w3.org/2000/svg">
<path d="M14.425 3.8374L8.3875 0.362402C8.2875 0.299902 8.15 0.274902 8 0.274902C7.85 0.274902 7.7125 0.312402 7.6125 0.362402L1.6125 3.8499C1.4 3.9749 1.25 4.2874 1.25 4.5249V11.4874C1.25 11.6249 1.275 11.7874 1.375 11.9249L14.725 4.1749C14.65 4.0249 14.5375 3.9124 14.425 3.8374Z" fill="#9B4F96"/>
<path d="M1.3375 11.9126C1.4 12.0126 1.4875 12.1001 1.575 12.1501L7.6 15.6376C7.7 15.7001 7.8375 15.7251 7.9875 15.7251C8.1375 15.7251 8.275 15.6876 8.375 15.6376L14.375 12.1501C14.5875 12.0251 14.7375 11.7126 14.7375 11.4751V4.5126C14.7375 4.4001 14.725 4.2751 14.6625 4.1626L1.3375 11.9126Z" fill="#68217A"/>
<path d="M10.6625 9.5125C10.1375 10.4375 9.1375 11.0625 8 11.0625C6.3125 11.0625 4.9375 9.6875 4.9375 8C4.9375 6.3125 6.3125 4.9375 8 4.9375C9.1375 4.9375 10.1375 5.5625 10.6625 6.5L12.2875 5.5625C11.4375 4.075 9.8375 3.0625 8 3.0625C5.275 3.0625 3.0625 5.275 3.0625 8C3.0625 10.725 5.275 12.9375 8 12.9375C9.825 12.9375 11.425 11.9375 12.275 10.4625L10.6625 9.5125ZM12.125 8.275L12.2375 7.7375H11.7125V7.15H12.35L12.5 6.375H13.1125L12.9625 7.1375H13.4375L13.5875 6.375H14.1875L14.0375 7.1375H14.3375V7.725H13.925L13.8125 8.2625H14.3375V8.85H13.7L13.55 9.6H12.9375L13.0875 8.85H12.6125L12.4625 9.6H11.8625L12.0125 8.85H11.7125V8.2625H12.125V8.275ZM12.725 8.275H13.2L13.3125 7.7375H12.8375L12.725 8.275Z" fill="white"/>
</svg>
