<svg width="16" height="16" viewBox="0 0 16 16" fill="none" xmlns="http://www.w3.org/2000/svg">
<g clip-path="url(#clip0_223_2)">
<path d="M12.25 0H3.75C1.67893 0 0 1.67893 0 3.75V12.25C0 14.3211 1.67893 16 3.75 16H12.25C14.3211 16 16 14.3211 16 12.25V3.75C16 1.67893 14.3211 0 12.25 0Z" fill="#512BD4"/>
<path d="M1.50325 10.5589C1.36346 10.5589 1.24465 10.5132 1.14681 10.4218C1.04894 10.328 1 10.2166 1 10.0876C1 9.95633 1.04894 9.84377 1.14681 9.74994C1.24465 9.65619 1.36346 9.60929 1.50325 9.60925C1.64537 9.60925 1.76538 9.65615 1.86325 9.74994C1.96342 9.84373 2.0135 9.95629 2.0135 10.0876C2.0135 10.2166 1.96342 10.328 1.86325 10.4218C1.76538 10.5132 1.64537 10.5589 1.50325 10.5589ZM7.09169 10.4816H6.18306L3.78906 6.77419C3.72939 6.68209 3.67906 6.58427 3.63881 6.48219H3.61781C3.63644 6.5901 3.64575 6.82108 3.64575 7.17513V10.4816H2.84194V5.4375H3.81L6.12362 9.057C6.2215 9.20708 6.28442 9.31027 6.31238 9.36656H6.32631C6.30302 9.2329 6.29138 9.00658 6.29138 8.68762V5.4375H7.09169V10.4816ZM11.0061 10.4816H8.19275V5.4375H10.8943V6.14806H9.02456V7.57613H10.7476V8.28312H9.02456V9.77456H11.0061V10.4816ZM15.0044 6.14806H13.5646V10.4816H12.7327V6.14806H11.2964V5.4375H15.0044V6.14806Z" fill="white"/>
</g>
<defs>
<clipPath id="clip0_223_2">
<rect width="16" height="16" fill="white"/>
</clipPath>
</defs>
</svg>
