<svg width="40" height="40" viewBox="0 0 40 40" fill="none" xmlns="http://www.w3.org/2000/svg">
<g clip-path="url(#clip0_2059_11)">
<path d="M8.33313 0C3.74063 0 0 3.74063 0 8.33313C0 12.355 2.86906 15.7241 6.66687 16.4988V28.3331C6.66687 32.0113 9.69187 35 13.3331 35H13.3941C13.8009 37.8197 16.2378 40 19.1669 40C22.3787 40 25 37.3787 25 34.1669C25 30.955 22.3787 28.3331 19.1669 28.3331C16.2381 28.3331 13.8013 30.5134 13.3941 33.3331H13.3331C10.6028 33.3331 8.33313 31.0981 8.33313 28.3331V19.9309C8.87229 20.4814 9.51606 20.9186 10.2266 21.2167C10.9371 21.5148 11.7001 21.6679 12.4706 21.6669H13.3941C13.8013 24.4866 16.2378 26.6669 19.1669 26.6669C22.0959 26.6669 24.5322 24.4866 24.9388 21.6669H28.3941C28.8013 24.4866 31.2378 26.6669 34.1669 26.6669C37.3787 26.6669 40 24.045 40 20.8331C40 17.6213 37.3787 15 34.1669 15C31.2378 15 28.8009 17.1803 28.3941 20H24.9391C24.5325 17.1803 22.0959 15 19.1669 15C16.2378 15 13.8009 17.1803 13.3941 20H12.4706C10.4603 20 8.78531 18.5659 8.41187 16.665C12.9681 16.6225 16.6669 12.8994 16.6669 8.33313C16.6669 3.74063 12.9256 0 8.33313 0ZM8.33313 1.66688C9.20909 1.66506 10.0768 1.83625 10.8864 2.17061C11.6961 2.50497 12.4317 2.99592 13.0511 3.6153C13.6706 4.23467 14.1616 4.97026 14.496 5.77987C14.8305 6.58948 15.0017 7.45716 15 8.33313C15.0016 9.20909 14.8303 10.0768 14.4959 10.8864C14.1614 11.696 13.6704 12.4316 13.051 13.051C12.4316 13.6704 11.696 14.1614 10.8864 14.4959C10.0768 14.8303 9.20909 15.0016 8.33313 15C7.45716 15.0017 6.58948 14.8305 5.77987 14.496C4.97026 14.1616 4.23467 13.6706 3.6153 13.0511C2.99592 12.4317 2.50497 11.6961 2.17061 10.8864C1.83625 10.0768 1.66506 9.20909 1.66688 8.33313C1.66515 7.45722 1.83639 6.58958 2.17079 5.78002C2.50519 4.97045 2.99615 4.23488 3.61552 3.61552C4.23488 2.99615 4.97045 2.50519 5.78002 2.17079C6.58958 1.83639 7.45722 1.66515 8.33313 1.66688ZM6.70344 4.02344C5.83438 4.02781 5 4.72594 5 5.67688V11.0028C5 12.2662 6.47156 13.085 7.54531 12.4194L11.8059 9.77719C12.8237 9.14594 12.8291 7.58906 11.8159 6.95063L7.555 4.26625C7.3005 4.10489 7.00477 4.02057 6.70344 4.02344ZM6.66687 5.67688L10.9278 8.36062L6.66687 11.0028V5.67688ZM19.1669 16.6669C19.7145 16.6651 20.257 16.7717 20.7633 16.9805C21.2695 17.1892 21.7295 17.4961 22.1167 17.8833C22.5039 18.2705 22.8108 18.7305 23.0195 19.2367C23.2283 19.743 23.3349 20.2855 23.3331 20.8331C23.3348 21.3807 23.2282 21.9233 23.0194 22.4296C22.8107 22.9358 22.5039 23.3958 22.1167 23.7831C21.7295 24.1704 21.2695 24.4772 20.7633 24.6861C20.257 24.8949 19.7145 25.0016 19.1669 25C18.6192 25.0017 18.0766 24.895 17.5703 24.6862C17.064 24.4774 16.604 24.1705 16.2168 23.7832C15.8295 23.396 15.5226 22.936 15.3138 22.4297C15.105 21.9234 14.9983 21.3808 15 20.8331C14.9984 20.2855 15.1051 19.743 15.3139 19.2367C15.5228 18.7305 15.8296 18.2705 16.2169 17.8833C16.6042 17.4961 17.0642 17.1893 17.5704 16.9806C18.0767 16.7718 18.6193 16.6652 19.1669 16.6669ZM34.1669 16.6669C34.7145 16.6651 35.257 16.7717 35.7633 16.9805C36.2695 17.1892 36.7295 17.4961 37.1167 17.8833C37.5039 18.2705 37.8108 18.7305 38.0195 19.2367C38.2283 19.743 38.3349 20.2855 38.3331 20.8331C38.3348 21.3807 38.2282 21.9233 38.0194 22.4296C37.8107 22.9358 37.5039 23.3958 37.1167 23.7831C36.7295 24.1704 36.2695 24.4772 35.7633 24.6861C35.257 24.8949 34.7145 25.0016 34.1669 25C33.6192 25.0017 33.0766 24.895 32.5703 24.6862C32.064 24.4774 31.604 24.1705 31.2168 23.7832C30.8295 23.396 30.5226 22.936 30.3138 22.4297C30.105 21.9234 29.9983 21.3808 30 20.8331C29.9984 20.2855 30.1051 19.743 30.3139 19.2367C30.5228 18.7305 30.8296 18.2705 31.2169 17.8833C31.6042 17.4961 32.0642 17.1893 32.5704 16.9806C33.0767 16.7718 33.6193 16.6652 34.1669 16.6669ZM20.8644 18.8391C20.6433 18.839 20.4312 18.9266 20.2747 19.0828L18.3059 21.0497L17.6519 20.3984C17.4953 20.2425 17.2833 20.155 17.0623 20.1554C16.8413 20.1557 16.6295 20.2438 16.4734 20.4003C16.3962 20.4779 16.335 20.5699 16.2933 20.6711C16.2516 20.7723 16.2303 20.8807 16.2305 20.9902C16.2308 21.0997 16.2526 21.208 16.2947 21.309C16.3368 21.4101 16.3984 21.5018 16.4759 21.5791L17.7178 22.8166C17.8741 22.9723 18.0857 23.0597 18.3063 23.0596C18.5269 23.0596 18.7385 22.972 18.8947 22.8163L21.4525 20.2619C21.5299 20.1845 21.5914 20.0927 21.6333 19.9916C21.6753 19.8905 21.6969 19.7821 21.697 19.6726C21.697 19.5632 21.6755 19.4548 21.6337 19.3536C21.5918 19.2525 21.5305 19.1606 21.4531 19.0831C21.2969 18.9272 21.0851 18.8392 20.8644 18.8391ZM35.8644 18.8391C35.6433 18.839 35.4312 18.9266 35.2747 19.0828L33.3059 21.0497L32.6519 20.3984C32.4953 20.2425 32.2833 20.155 32.0623 20.1554C31.8413 20.1557 31.6295 20.2438 31.4734 20.4003C31.3962 20.4779 31.335 20.5699 31.2933 20.6711C31.2516 20.7723 31.2303 20.8807 31.2305 20.9902C31.2308 21.0997 31.2526 21.208 31.2947 21.309C31.3368 21.4101 31.3984 21.5018 31.4759 21.5791L32.7178 22.8166C32.8741 22.9723 33.0857 23.0597 33.3063 23.0596C33.5269 23.0596 33.7385 22.972 33.8947 22.8163L36.4525 20.2619C36.5299 20.1845 36.5914 20.0927 36.6333 19.9916C36.6753 19.8905 36.6969 19.7821 36.697 19.6726C36.697 19.5632 36.6755 19.4548 36.6337 19.3536C36.5918 19.2525 36.5305 19.1606 36.4531 19.0831C36.2969 18.9272 36.0851 18.8392 35.8644 18.8391ZM19.1669 30C19.7145 29.9984 20.257 30.1051 20.7633 30.3139C21.2695 30.5228 21.7295 30.8296 22.1167 31.2169C22.5039 31.6042 22.8107 32.0642 23.0194 32.5704C23.2282 33.0767 23.3348 33.6193 23.3331 34.1669C23.3349 34.7145 23.2283 35.257 23.0195 35.7633C22.8108 36.2695 22.5039 36.7295 22.1167 37.1167C21.7295 37.5039 21.2695 37.8108 20.7633 38.0195C20.257 38.2283 19.7145 38.3349 19.1669 38.3331C18.6193 38.3348 18.0767 38.2282 17.5704 38.0194C17.0642 37.8107 16.6042 37.5039 16.2169 37.1167C15.8296 36.7295 15.5228 36.2695 15.3139 35.7633C15.1051 35.257 14.9984 34.7145 15 34.1669C14.9983 33.6192 15.105 33.0766 15.3138 32.5703C15.5226 32.064 15.8295 31.604 16.2168 31.2168C16.604 30.8295 17.064 30.5226 17.5703 30.3138C18.0766 30.105 18.6192 29.9983 19.1669 30ZM17.5 32.9169C16.8147 32.9169 16.25 33.4816 16.25 34.1669C16.25 34.8528 16.815 35.4169 17.5 35.4169C18.185 35.4169 18.75 34.8528 18.75 34.1669C18.75 33.4816 18.1853 32.9169 17.5 32.9169ZM20.8331 32.9169C20.1478 32.9169 19.5831 33.4816 19.5831 34.1669C19.5831 34.8528 20.1481 35.4169 20.8331 35.4169C21.5181 35.4169 22.0831 34.8528 22.0831 34.1669C22.0831 33.4816 21.5184 32.9169 20.8331 32.9169ZM17.5 33.75C17.7344 33.75 17.9169 33.9328 17.9169 34.1669C17.9169 34.4022 17.7347 34.5831 17.5 34.5831C17.2656 34.5831 17.0831 34.4019 17.0831 34.1669C17.0831 33.9325 17.2659 33.75 17.5 33.75ZM20.8331 33.75C21.0675 33.75 21.25 33.9328 21.25 34.1669C21.25 34.4022 21.0678 34.5831 20.8331 34.5831C20.5988 34.5831 20.4169 34.4019 20.4169 34.1669C20.4169 33.9325 20.5991 33.75 20.8331 33.75Z" fill="#2088FF"/>
<path d="M34.1669 28.333C31.2347 28.333 28.7956 30.5183 28.3928 33.3427C28.3653 33.3403 28.3377 33.3392 28.31 33.3393L27.4663 33.3674C27.2455 33.3746 27.0366 33.4693 26.8855 33.6305C26.7344 33.7917 26.6536 34.0063 26.6606 34.2271C26.6679 34.4479 26.7626 34.6569 26.9238 34.8079C27.0851 34.959 27.2998 35.0399 27.5206 35.0327L28.3644 35.0055L28.3947 35.0036C28.8031 37.8214 31.2391 39.9999 34.1669 39.9999C37.3788 39.9999 40 37.3786 40 34.1668C40 30.9549 37.3788 28.333 34.1669 28.333ZM34.1669 29.9999C34.7145 29.9983 35.2571 30.105 35.7633 30.3138C36.2695 30.5226 36.7295 30.8295 37.1167 31.2168C37.5039 31.604 37.8107 32.064 38.0195 32.5703C38.2282 33.0766 38.3348 33.6191 38.3331 34.1668C38.3349 34.7144 38.2283 35.2569 38.0195 35.7632C37.8108 36.2694 37.504 36.7294 37.1167 37.1166C36.7295 37.5038 36.2696 37.8106 35.7633 38.0194C35.257 38.2282 34.7145 38.3347 34.1669 38.333C33.6193 38.3347 33.0767 38.2281 32.5704 38.0193C32.0642 37.8106 31.6042 37.5038 31.2169 37.1166C30.8297 36.7293 30.5228 36.2694 30.3139 35.7632C30.1051 35.2569 29.9984 34.7144 30 34.1668C29.9984 33.6191 30.105 33.0765 30.3138 32.5702C30.5227 32.0639 30.8295 31.6039 31.2168 31.2167C31.604 30.8294 32.0641 30.5225 32.5704 30.3137C33.0766 30.1049 33.6192 29.9982 34.1669 29.9999Z" fill="#79B8FF"/>
</g>
<defs>
<clipPath id="clip0_2059_11">
<rect width="40" height="40" fill="white"/>
</clipPath>
</defs>
</svg>
