<svg width="48" height="48" viewBox="0 0 48 48" fill="none" xmlns="http://www.w3.org/2000/svg">
<path d="M34 16V32H42M26 30L28 32M6 30C6 30.5304 6.21071 31.0391 6.58579 31.4142C6.96086 31.7893 7.46957 32 8 32H12C12.5304 32 13.0391 31.7893 13.4142 31.4142C13.7893 31.0391 14 30.5304 14 30V26C14 25.4696 13.7893 24.9609 13.4142 24.5858C13.0391 24.2107 12.5304 24 12 24H8C7.46957 24 6.96086 23.7893 6.58579 23.4142C6.21071 23.0391 6 22.5304 6 22V18C6 17.4696 6.21071 16.9609 6.58579 16.5858C6.96086 16.2107 7.46957 16 8 16H12C12.5304 16 13.0391 16.2107 13.4142 16.5858C13.7893 16.9609 14 17.4696 14 18M24 16C25.0609 16 26.0783 16.4214 26.8284 17.1716C27.5786 17.9217 28 18.9391 28 20V28C28 29.0609 27.5786 30.0783 26.8284 30.8284C26.0783 31.5786 25.0609 32 24 32C22.9391 32 21.9217 31.5786 21.1716 30.8284C20.4214 30.0783 20 29.0609 20 28V20C20 18.9391 20.4214 17.9217 21.1716 17.1716C21.9217 16.4214 22.9391 16 24 16Z" stroke="#FFCD29" stroke-width="4" stroke-linecap="round" stroke-linejoin="round"/>
</svg>
