<svg width="50" height="50" viewBox="0 0 50 50" fill="none" xmlns="http://www.w3.org/2000/svg">
<g clip-path="url(#clip0_212_2)">
<path d="M38.2812 0H11.7188C5.24666 0 0 5.24666 0 11.7188V38.2812C0 44.7533 5.24666 50 11.7188 50H38.2812C44.7533 50 50 44.7533 50 38.2812V11.7188C50 5.24666 44.7533 0 38.2812 0Z" fill="url(#paint0_linear_212_2)"/>
<path d="M2.2436 25.2108L12.0686 29.192V31.979L0.437744 26.5901V24.9549L2.2436 25.2108ZM12.0686 21.9407L2.25786 25.9786L0.437939 26.1778V24.5284L12.0684 19.1538L12.0686 21.9407ZM47.1428 25.7795L37.0334 21.8411V19.1252L49.176 24.4999V26.1635L47.1428 25.7795ZM37.0334 29.2489L47.1713 25.225L49.176 24.9264V26.5758L37.0334 31.9647V29.2489Z" fill="white"/>
<path fill-rule="evenodd" clip-rule="evenodd" d="M34.39 11.9334C34.3337 12.8252 33.932 13.7564 34.0439 14.6234C34.7456 15.8644 36.2902 16.0623 37.5644 16.1474C38.4472 16.3053 38.4361 15.7207 38.3769 15.064L38.3876 11.9148C37.055 11.9197 35.722 11.9017 34.39 11.9334ZM23.882 14.4275C21.7124 14.7959 19.5132 15.8326 17.7083 17.0806C16.2556 18.2113 18.9554 19.307 19.9349 19.4902C21.9056 19.5142 23.6535 18.1849 24.948 16.8053C25.3706 16.2252 25.8986 15.3371 25.3675 14.6646C24.9621 14.3131 24.3724 14.3982 23.882 14.4275ZM28.4986 17.583C26.7148 17.9228 25.0175 18.658 23.5158 19.6816C22.4148 20.0273 21.5074 21.2361 22.8716 21.8418C24.3042 22.9834 25.9646 22.7037 27.2839 21.933C28.4921 21.2148 29.7972 20.3287 30.3562 18.9767C30.8841 17.4957 29.522 17.4408 28.4986 17.583ZM33.5589 23.3219C33.2267 24.7094 31.8294 25.3402 31.0861 26.4396C30.4783 27.2416 30.7597 28.1863 31.4517 28.8176C31.7886 29.5162 32.3792 29.9066 33.0126 29.2998C34.6439 28.1908 35.0951 26.0306 35.0273 24.159C35.1478 23.3859 34.2609 24.0847 33.5589 23.3219ZM27.3513 25.9279C25.1851 26.2986 23.0185 27.3541 21.2128 28.6002C19.8111 29.7293 22.4511 30.7836 23.4386 30.9508C25.4458 30.9537 27.2363 29.6601 28.5054 28.191C28.9468 27.6076 29.4818 26.4746 28.6078 26.0107C28.2169 25.8451 27.7632 25.8937 27.3513 25.9279Z" fill="#B956A6"/>
<path fill-rule="evenodd" clip-rule="evenodd" d="M17.7084 17.0806C16.0424 17.7472 14.4354 18.5566 12.8483 19.4043C12.5533 20.5009 12.7899 21.8589 12.7135 23.0615C12.7076 28.006 12.7104 32.9507 12.7096 37.8953H16.3854C17.1276 37.1964 18.0572 36.6849 18.8635 36.0503C21.9678 33.824 25.0711 31.589 28.1713 29.3689C28.3994 29.4714 28.2533 28.0269 27.7529 29.0302C26.5672 30.146 24.9934 31.0638 23.3276 30.9742C22.3822 30.6632 20.8584 30.1357 20.8488 28.9773C21.5143 28.1939 19.6211 29.3875 19.1031 29.5584C17.4192 30.367 15.775 31.2699 14.0875 32.0634C14.493 31.6279 15.2516 31.2218 15.7895 30.7898C19.6319 28.0316 23.4733 25.2627 27.3248 22.5066C28.0656 21.9865 28.7813 21.4191 29.5449 20.933C29.6147 21.2023 29.7455 19.6453 29.1776 20.6039C28.0197 21.7515 26.458 22.6058 24.811 22.6175C23.8846 22.3363 21.9115 21.6638 22.3508 20.4677C22.5651 20.048 20.361 21.3625 21.3348 20.6212C22.3713 19.8638 23.416 19.1199 24.4606 18.3703C24.9881 18.3306 24.8758 16.3711 24.159 17.6351C22.9549 18.6931 21.3729 19.6611 19.7145 19.4316C18.7828 19.1634 17.6651 18.6441 17.3264 17.6699C17.2143 17.4359 17.9537 17.0712 17.7084 17.0806ZM24.6106 18.2902C24.7779 18.1937 24.5182 18.5544 24.6106 18.2902Z" fill="#FCCC44"/>
<path fill-rule="evenodd" clip-rule="evenodd" d="M35.1365 15.7715C34.6164 18.255 34.0478 20.8545 33.559 23.3216C34.9636 25.092 35.0998 22.2033 35.3455 21.3865C35.7426 19.6793 36.2129 18.3902 36.2627 16.6226C36.3681 16.0193 35.6592 15.6541 35.1365 15.7715ZM36.748 17.7189C36.8121 17.7668 36.7041 17.9734 36.748 17.7189ZM35.1093 23.2881C35.1769 23.4336 35.1769 23.1423 35.1093 23.2881Z" fill="#62777F"/>
<path fill-rule="evenodd" clip-rule="evenodd" d="M36.0579 16.0527C36.4961 18.5141 35.0444 21.5043 34.5696 23.825C35.6477 23.0316 36.4807 19.432 36.6936 18.023C36.7485 17.8619 36.8161 17.4564 36.8307 17.4418C36.8985 17.0998 37.5299 16.5203 37.5645 16.1475C37.9321 15.8881 35.7579 15.8465 36.0579 16.0527ZM35.1639 23.2881C35.0961 23.4336 35.0961 23.1424 35.1639 23.2881Z" fill="#4E5E67"/>
<path fill-rule="evenodd" clip-rule="evenodd" d="M17.745 17.1217C17.1372 17.7302 17.3653 17.5816 17.8176 17.0756L17.745 17.1217ZM24.3192 17.423C23.6151 18.481 21.076 19.3658 20.7563 19.4343C22.2836 19.1482 23.7073 18.198 24.709 17.0851C24.5499 17.156 24.4553 17.3226 24.3192 17.423ZM17.3274 17.7666C17.7069 18.6791 19.0868 19.2853 19.7573 19.4267C18.8418 19.1318 17.7643 18.6088 17.3274 17.7666ZM24.5559 18.2943C24.3643 18.5205 23.6819 18.8588 23.3221 19.1908C22.5504 19.7599 21.7522 20.2888 20.9893 20.8722C21.475 20.8513 22.8985 19.7881 22.1688 20.867C22.7872 21.9312 24.1334 22.6713 25.361 22.6037C26.9821 22.3492 28.477 21.4529 29.5516 20.2064C28.2471 21.4972 26.5225 22.7121 24.6141 22.5447C23.6905 22.3314 21.1666 21.0277 22.8549 20.1138C23.4502 19.6242 24.4766 19.3677 24.5928 18.5072C24.5684 18.3998 24.7686 18.2949 24.5559 18.2943ZM19.935 19.4902C20.5493 19.5705 20.5493 19.4101 19.935 19.4902ZM29.5059 20.9599C27.0686 22.658 24.6666 24.4224 22.2504 26.151C19.5122 28.1107 16.7856 30.0777 14.0481 32.0359C15.0774 31.6888 16.1086 31.0111 17.1311 30.5429C18.5393 29.798 20.0241 29.2095 21.3416 28.3047C23.9467 26.7711 26.7018 25.3099 28.7055 22.9636C29.1428 22.4508 29.5813 21.6252 29.6008 21.0699C29.5377 21.0877 29.5856 20.8478 29.5059 20.9599ZM21.2129 28.6C20.7745 29.0955 20.5963 29.4496 21.0514 28.8195C21.0434 28.8926 21.4208 28.4283 21.2129 28.6ZM27.884 28.8371C26.729 30.0551 25.0206 30.9336 23.4176 30.9927C25.2708 31.0062 26.9426 29.9062 28.1981 28.6086C28.1157 28.509 27.9487 28.8406 27.884 28.8371ZM28.237 29.2199C24.3563 32.0449 20.3416 34.9752 16.4479 37.79C17.0612 37.9824 18.3969 38.0726 19.0065 37.2873C20.3034 36.3924 21.7614 35.7343 23.0625 34.8273C24.9467 33.6047 26.9641 32.2683 28.0342 30.2135C28.0852 29.9379 28.4639 29.4422 28.237 29.2199ZM20.8516 29.3992C21.0317 30.1594 23.2829 31.0318 23.0387 30.8648C22.2086 30.5738 21.3852 30.1203 20.8516 29.3992Z" fill="#DC9624"/>
</g>
<defs>
<linearGradient id="paint0_linear_212_2" x1="0" y1="50" x2="50" y2="0" gradientUnits="userSpaceOnUse">
<stop stop-color="#DB7093"/>
<stop offset="1" stop-color="#F3B661"/>
</linearGradient>
<clipPath id="clip0_212_2">
<rect width="50" height="50" fill="white"/>
</clipPath>
</defs>
</svg>
